<?xml version="1.0" encoding="UTF-8" standalone="no"?>
<!-- Created with Inkscape (http://www.inkscape.org/) -->

<svg
   xmlns:dc="http://purl.org/dc/elements/1.1/"
   xmlns:cc="http://creativecommons.org/ns#"
   xmlns:rdf="http://www.w3.org/1999/02/22-rdf-syntax-ns#"
   xmlns:svg="http://www.w3.org/2000/svg"
   xmlns="http://www.w3.org/2000/svg"
   xmlns:sodipodi="http://sodipodi.sourceforge.net/DTD/sodipodi-0.dtd"
   xmlns:inkscape="http://www.inkscape.org/namespaces/inkscape"
   id="svg1353"
   sodipodi:version="0.32"
   inkscape:version="0.48.3.1 r9886"
   width="670"
   height="590"
   sodipodi:docname="travaux.svg"
   version="1.0">
  <metadata
     id="metadata1358">
    <rdf:RDF>
      <cc:Work
         rdf:about="">
        <dc:format>image/svg+xml</dc:format>
        <dc:type
           rdf:resource="http://purl.org/dc/dcmitype/StillImage" />
        <dc:title />
      </cc:Work>
    </rdf:RDF>
  </metadata>
  <defs
     id="defs1356" />
  <sodipodi:namedview
     inkscape:window-height="1071"
     inkscape:window-width="1628"
     inkscape:pageshadow="2"
     inkscape:pageopacity="0.0"
     borderopacity="1.0"
     bordercolor="#666666"
     pagecolor="#ffffff"
     id="base"
     inkscape:zoom="1.1091992"
     inkscape:cx="250.50255"
     inkscape:cy="265.79016"
     inkscape:window-x="39"
     inkscape:window-y="72"
     inkscape:current-layer="svg1353"
     showgrid="false"
     inkscape:window-maximized="0"
     showguides="true"
     inkscape:guide-bbox="true" />
  <path
     style="fill:none;stroke:#000000;stroke-width:16.92660141;stroke-linecap:round;stroke-linejoin:round;stroke-miterlimit:4;stroke-opacity:1;stroke-dasharray:none"
     d="m 291.25979,278.50738 c -34.27577,27.84902 -53.48246,46.57253 -34.27576,56.51714 23.72938,12.28633 39.54898,41.77353 39.54898,41.77353"
     id="path3970"
     inkscape:connector-curvature="0"
     sodipodi:nodetypes="csc" />
  <path
     style="font-size:medium;font-style:normal;font-variant:normal;font-weight:normal;font-stretch:normal;text-indent:0;text-align:start;text-decoration:none;line-height:normal;letter-spacing:normal;word-spacing:normal;text-transform:none;direction:ltr;block-progression:tb;writing-mode:lr-tb;text-anchor:start;baseline-shift:baseline;color:#000000;fill:#c30000;fill-opacity:1;stroke:none;stroke-width:41.51223755;marker:none;visibility:visible;display:inline;overflow:visible;enable-background:accumulate;font-family:Sans;-inkscape-font-specification:Sans"
     d="m 316.15625,44.40625 c -97.73038,165.46794 -192.44742,337.3545 -280.375,486 -5.547738,15.96484 -3.873603,31.42875 24.1875,31.43745 186.87009,-0.0592 386.18117,0.0341 554.15625,-0.0312 21.80293,0.20478 35.23398,-13.83106 23.56255,-32.5 C 541.53728,364.82202 444.86419,192.76996 358.5625,44.40625 c -19.11411,-30.732261 -34.72179,-12.613579 -42.40625,0 z m 21.1875,46.1875 c 89.5428,155.29814 168.28772,292.23464 247.28125,429.71875 -179.01417,0.005 -336.78,0.051 -495.125,0.0312 89.63308,-155.42019 168.22244,-292.37321 247.84375,-429.75 z M 602.375,551.15625 c 0.009,0.0163 0.0261,0.0534 0.0312,0.0625 0.009,0.0165 -0.01,0.0384 -0.0312,0 -6e-5,-1.1e-4 5e-5,-0.062 0,-0.0625 z"
     id="path3087"
     inkscape:connector-curvature="0"
     sodipodi:nodetypes="cccccccccccccccc" />
  <path
     style="fill:#000000;fill-opacity:1;fill-rule:evenodd;stroke:#000000;stroke-width:1.2673384;stroke-linecap:round;stroke-linejoin:round;stroke-miterlimit:6.5;stroke-opacity:1"
     d="m 315.54282,223.14068 c 5.76751,13.04303 0.3286,28.18738 -12.03155,34.04737 -12.36015,5.85995 -26.98412,0.22742 -32.64273,-12.57264 -5.65847,-12.80006 -0.21956,-27.94442 12.14059,-33.8044 12.2775,-5.82077 26.7843,-0.32296 32.53369,12.32967 z"
     id="path1387"
     sodipodi:nodetypes="csssc"
     inkscape:connector-curvature="0" />
  <path
     style="fill:none;stroke:#000000;stroke-width:9.22477722;stroke-linecap:round;stroke-linejoin:round;stroke-miterlimit:4;stroke-opacity:1;stroke-dasharray:none"
     d="m 396.89268,309.56729 c -6.64799,-9.62356 12.9976,-15.56669 5.63076,-27.9876"
     id="path3956"
     inkscape:connector-curvature="0" />
  <path
     inkscape:connector-curvature="0"
     id="path3958"
     d="m 412.36176,310.67353 c -6.64798,-9.62355 12.9976,-15.56669 5.63076,-27.9876"
     style="fill:none;stroke:#000000;stroke-width:9.22477722;stroke-linecap:round;stroke-linejoin:round;stroke-miterlimit:4;stroke-opacity:1;stroke-dasharray:none" />
  <path
     style="fill:none;stroke:#000000;stroke-width:9.22477722;stroke-linecap:round;stroke-linejoin:round;stroke-miterlimit:4;stroke-opacity:1;stroke-dasharray:none"
     d="m 428.06828,311.79648 c -6.64798,-9.62356 12.9976,-15.56669 5.63076,-27.9876"
     id="path3960"
     inkscape:connector-curvature="0" />
  <path
     style="fill:#000000;stroke:#000000;stroke-width:6.27284861;stroke-linecap:round;stroke-linejoin:round;stroke-miterlimit:4;stroke-opacity:1;stroke-dasharray:none"
     d="m 437.33851,323.26413 -47.73995,-3.35754 -2.33567,33.21038 8.04028,9.2568 32.86445,2.31135 7.59057,-6.59304 z"
     id="path3962"
     inkscape:connector-curvature="0" />
  <path
     style="fill:#000000;stroke:#000000;stroke-width:5.8238821;stroke-linecap:round;stroke-linejoin:round;stroke-miterlimit:4;stroke-opacity:1;stroke-dasharray:none"
     d="m 189.30131,445.43785 65.6051,21.51834 c 0,0 -1.00386,2.65839 -9.28569,24.59006 -8.28183,21.93168 -45.52216,18.67987 -45.52216,18.67987 0,0 -28.61573,-17.60193 -21.83967,-35.54603 6.77604,-17.9441 11.04242,-29.24224 11.04242,-29.24224 z"
     id="path3968"
     inkscape:connector-curvature="0" />
  <path
     style="fill:none;stroke:#000000;stroke-width:14.3054924;stroke-linecap:round;stroke-linejoin:round;stroke-miterlimit:4;stroke-opacity:1;stroke-dasharray:none"
     d="m 295.06564,277.68561 c 12.46084,31.82048 75.35981,56.78019 75.35981,56.78019"
     id="path3972"
     inkscape:connector-curvature="0"
     sodipodi:nodetypes="cc" />
  <path
     style="fill:none;stroke:#000000;stroke-width:16.92660141;stroke-linecap:round;stroke-linejoin:round;stroke-miterlimit:4;stroke-opacity:1;stroke-dasharray:none"
     d="m 293.04,272.90728 c 20.4263,139.35305 66.02788,110.20589 81.76502,137.87014 19.22597,33.79727 -22.18482,82.2571 -22.18482,82.2571"
     id="path3974"
     inkscape:connector-curvature="0"
     sodipodi:nodetypes="csc" />
  <path
     style="fill:none;stroke:#000000;stroke-width:16.92660141;stroke-linecap:round;stroke-linejoin:round;stroke-miterlimit:4;stroke-opacity:1;stroke-dasharray:none"
     d="m 319.38353,364.5117 c 0,6.41623 81.73455,123.77742 94.91753,133.5115"
     id="path3978"
     inkscape:connector-curvature="0"
     sodipodi:nodetypes="cc" />
  <path
     style="fill:none;stroke:#000000;stroke-width:13.5412817;stroke-linecap:round;stroke-linejoin:round;stroke-miterlimit:4;stroke-opacity:1;stroke-dasharray:none"
     d="M 256.94899,363.81009 219.8062,462.17035"
     id="path3966"
     inkscape:connector-curvature="0" />
  <path
     id="path4028"
     d="m 56.391,572.26715 c 132.50925,0.007 432.04598,-0.007 559.39852,-0.027 42.92481,0.0972 44.69471,-27.8027 29.49455,-51.51153 C 581.61004,409.94295 432.16239,149.99166 367.78627,38.486785 353.80192,16.502568 329.32295,1.2508978 307.56348,38.89805 217.32206,194.75016 120.01123,361.79943 26.626295,524.44457 14.754232,543.91716 19.013023,572.26453 56.391,572.26715 z"
     style="fill:none;stroke:#000000;stroke-width:2.38375473;stroke-linecap:round;stroke-linejoin:round;stroke-miterlimit:4;stroke-opacity:1;stroke-dasharray:none"
     sodipodi:nodetypes="ccccccc"
     inkscape:connector-curvature="0" />
</svg>
